<?xml version="1.0" standalone="no"?>
<!DOCTYPE svg PUBLIC "-//W3C//DTD SVG 20010904//EN"
 "http://www.w3.org/TR/2001/REC-SVG-20010904/DTD/svg10.dtd">
<svg version="1.0" xmlns="http://www.w3.org/2000/svg"
 width="700.000000pt" height="700.000000pt" viewBox="0 0 700.000000 700.000000"
 preserveAspectRatio="xMidYMid meet">
<metadata>
Created by potrace 1.11, written by Peter Selinger 2001-2013
</metadata>
<g transform="translate(0.000000,700.000000) scale(0.100000,-0.100000)"
fill="#000000" stroke="none">
<path d="M3328 6995 c-2 -1 -48 -5 -104 -9 -55 -4 -110 -8 -122 -11 -11 -2
-45 -6 -74 -9 -29 -4 -64 -8 -78 -11 -14 -3 -54 -10 -89 -16 -36 -5 -67 -12
-70 -13 -3 -2 -24 -7 -46 -10 -22 -4 -62 -13 -90 -21 -27 -7 -61 -16 -75 -19
-46 -8 -294 -93 -400 -136 -193 -78 -434 -206 -610 -323 -77 -52 -252 -180
-282 -207 -9 -8 -41 -35 -72 -60 -113 -93 -391 -385 -471 -494 -16 -23 -32
-43 -35 -46 -3 -3 -28 -36 -56 -75 -311 -435 -516 -927 -604 -1449 -11 -69
-23 -142 -25 -163 -28 -254 -27 -642 0 -838 3 -16 7 -48 9 -70 9 -75 24 -161
42 -240 1 -5 4 -21 7 -35 62 -310 233 -741 409 -1028 35 -57 68 -111 73 -121
50 -85 246 -338 348 -449 308 -332 676 -607 1067 -795 180 -87 200 -94 235
-90 43 6 79 45 78 85 -1 18 -43 186 -93 373 -101 373 -198 736 -405 1510 -75
281 -147 551 -161 600 -13 50 -34 126 -45 170 -12 44 -25 94 -30 110 -16 53
-160 589 -165 615 -3 14 -16 63 -29 110 -13 47 -53 198 -90 335 -37 138 -75
279 -85 315 -77 274 -170 642 -170 671 0 40 8 54 35 63 29 9 123 -18 198 -55
80 -41 115 -67 225 -168 24 -22 111 -124 156 -181 18 -23 129 -200 159 -251
31 -55 177 -345 177 -353 0 -3 13 -34 29 -68 138 -303 330 -877 506 -1508 67
-242 87 -349 91 -483 3 -149 -13 -204 -92 -303 -68 -84 -85 -120 -88 -192 -5
-105 -5 -106 322 -1067 181 -531 173 -507 189 -523 20 -20 69 -32 163 -38 81
-6 88 -5 113 17 15 13 29 34 32 47 4 23 7 116 31 937 4 132 8 283 9 335 7 263
17 607 20 700 23 653 23 785 0 831 -46 88 -82 116 -190 150 -359 111 -609 415
-735 894 -36 135 -51 219 -65 355 -4 30 -8 73 -11 95 -5 50 -5 396 1 450 21
204 25 231 40 310 8 39 17 84 19 100 11 63 76 287 111 379 155 413 389 707
669 840 66 32 137 56 211 72 63 14 270 13 342 -1 94 -18 210 -65 303 -123 128
-78 314 -280 399 -432 47 -84 123 -248 150 -325 18 -49 36 -99 40 -110 14 -34
69 -255 81 -325 6 -36 13 -76 15 -90 3 -14 7 -50 11 -80 3 -30 9 -82 14 -115
9 -61 7 -554 -3 -590 -2 -11 -8 -45 -11 -76 -4 -31 -8 -66 -11 -77 -2 -11 -6
-35 -9 -53 -22 -141 -106 -400 -171 -530 -88 -173 -240 -356 -372 -446 -71
-48 -193 -107 -243 -118 -79 -17 -145 -67 -183 -140 -27 -52 -28 -135 -2 -600
2 -38 6 -131 10 -205 3 -74 8 -173 10 -220 3 -47 7 -143 10 -215 3 -71 8 -161
10 -200 2 -38 7 -137 10 -220 3 -82 8 -184 11 -225 2 -41 6 -131 9 -200 3 -69
7 -163 10 -210 3 -47 7 -139 10 -205 10 -256 16 -320 31 -343 24 -36 59 -45
143 -33 86 11 105 26 131 98 10 26 68 185 130 353 131 355 166 452 210 575 17
50 36 99 40 110 5 11 18 45 29 75 10 30 51 143 91 250 39 107 82 224 95 260
54 153 96 266 105 285 5 11 24 66 43 122 52 154 36 229 -73 331 -72 67 -119
135 -147 212 -69 188 -44 467 73 831 35 110 126 349 164 433 10 23 48 106 83
186 61 136 128 279 217 465 21 44 83 172 137 285 108 225 130 264 167 299 23
22 25 22 35 4 12 -23 7 -61 -20 -163 -40 -151 -174 -565 -403 -1248 -153 -453
-179 -605 -118 -673 33 -37 74 -41 116 -13 64 41 192 279 315 584 35 85 67
164 72 175 23 52 169 440 340 905 97 262 174 379 195 295 16 -65 2 -118 -253
-930 -41 -132 -81 -260 -88 -285 -7 -25 -29 -97 -48 -160 -153 -500 -185 -728
-108 -769 55 -30 131 1 182 75 77 113 146 285 330 832 77 229 174 518 216 642
41 124 87 252 100 285 29 69 68 125 87 125 16 0 26 -33 22 -75 -6 -53 -17
-128 -21 -134 -1 -3 -6 -22 -9 -41 -3 -19 -12 -69 -21 -110 -9 -41 -18 -86
-21 -100 -2 -14 -9 -45 -14 -70 -5 -25 -12 -56 -14 -70 -6 -33 -106 -511 -111
-530 -2 -8 -11 -45 -19 -83 -140 -635 -344 -1090 -566 -1262 -94 -72 -172
-103 -284 -111 -143 -11 -216 -69 -258 -204 -63 -200 -232 -863 -353 -1385 -7
-33 -30 -128 -49 -211 -20 -83 -36 -164 -36 -178 0 -33 49 -86 79 -86 32 0
188 65 345 145 992 501 1687 1440 1875 2535 19 111 24 152 40 319 8 77 6 550
-2 586 -2 11 -8 51 -12 89 -7 69 -11 97 -20 146 -3 14 -7 43 -11 65 -23 164
-108 461 -191 670 -414 1044 -1298 1823 -2387 2104 -65 17 -173 40 -240 52
-160 27 -162 27 -226 34 -30 3 -77 8 -105 11 -49 6 -461 14 -467 9z"/>
</g>
</svg>
