<?xml version="1.0" encoding="UTF-8" standalone="no"?><!DOCTYPE svg PUBLIC "-//W3C//DTD SVG 1.1//EN" "http://www.w3.org/Graphics/SVG/1.1/DTD/svg11.dtd"><svg width="64" viewBox="0 0 4167 4167" version="1.1" xmlns="http://www.w3.org/2000/svg" xmlns:xlink="http://www.w3.org/1999/xlink" xml:space="preserve" xmlns:serif="http://www.serif.com/" style="fill-rule:evenodd;clip-rule:evenodd;stroke-linejoin:round;stroke-miterlimit:2;"><g><path d="M1364.81,3948.16c5.314,19.817 -1.026,40.936 -16.375,54.551c-15.349,13.615 -37.073,17.389 -56.115,9.749c-757.943,-311.773 -1292.32,-1057.9 -1292.32,-1927.85c0,-1149.82 933.51,-2083.33 2083.33,-2083.33c1149.82,0 2083.33,933.51 2083.33,2083.33c0,882.622 -550.056,1637.79 -1325.72,1941.08c-18.69,7.257 -39.861,3.587 -55.017,-9.538c-15.156,-13.125 -21.814,-33.554 -17.301,-53.089c101.513,-439.784 202.964,-858.384 264.238,-1056.43c18.91,-61.117 75.006,-103.121 138.975,-104.064c405.593,-5.71 516.878,-830.66 641.638,-1416.94c36.21,-170.162 -14.9,-167.684 -72.966,2.375c-280.489,821.471 -335.531,1084.85 -467.345,1043.39c-100.319,-31.546 62.016,-458.012 268.71,-1141.89c59.938,-198.312 -4.894,-202.285 -71.703,-21.906c-256.982,693.835 -403.515,1097.4 -499.509,1061.85c-127.312,-47.154 34.947,-331.466 276.867,-1131c57.572,-190.273 1.555,-166.076 -64.33,-24.565c-252.943,543.283 -663.722,1267.18 -344.222,1516.77c50.485,39.474 69.767,106.993 47.742,167.174c0,0 -387.978,1060.12 -458.724,1253.42c-6.827,18.658 -23.322,32.081 -42.978,34.975c-20.991,3.041 -42.086,5.778 -63.282,8.197c-14.881,1.683 -29.794,-2.871 -41.195,-12.581c-11.402,-9.709 -18.273,-23.707 -18.982,-38.666c-13.786,-290.734 -75.557,-1594.78 -75.557,-1594.78c-3.285,-69.408 42.236,-131.726 109.354,-149.707c779.56,-211.908 627.508,-2091.4 -199.628,-2091.4c-835.396,-8.033 -1018.36,1895.17 -233.522,2093.7c67.335,16.762 113.907,78.158 111.899,147.519c-7.969,277.451 -27.438,951.167 -46.091,1596.16c-0.434,15.033 -7.099,29.21 -18.399,39.135c-11.3,9.925 -26.217,14.705 -41.181,13.196c-32.502,-3.358 -64.776,-7.442 -96.787,-12.254c-19.986,-3.049 -36.609,-16.977 -43.111,-36.121c-49.695,-146.291 -258.606,-761.416 -258.606,-761.416c-132.224,-389.328 184.983,-135.739 39.014,-680.503c-271.304,-1012.52 -544.07,-1548.16 -858.008,-1603.59c-33.867,-5.99 -58.038,5.331 -37.5,81.979c0,0 613.255,2287.83 751.367,2803.07Z" style="fill:#bd8721;"/></g></svg>